{
    "asset" : {
        "generator" : "Khronos glTF Blender I/O v1.5.17",
        "version" : "2.0"
    },
    "scene" : 0,
    "scenes" : [
        {
            "name" : "Scene",
            "nodes" : [
                0,
                1,
                2,
                3,
                4,
                5,
                6
            ]
        }
    ],
    "nodes" : [
        {
            "name" : "Cube"
        },
        {
            "name" : "Light",
            "rotation" : [
                0.16907575726509094,
                0.7558803558349609,
                -0.27217137813568115,
                0.570947527885437
            ],
            "translation" : [
                4.076245307922363,
                5.903861999511719,
                -1.0054539442062378
            ]
        },
        {
            "name" : "Camera",
            "rotation" : [
                0.483536034822464,
                0.33687159419059753,
                -0.20870360732078552,
                0.7804827094078064
            ],
            "translation" : [
                7.358891487121582,
                4.958309173583984,
                6.925790786743164
            ]
        },
        {
            "mesh" : 0,
            "name" : "Text",
            "scale" : [
                2.2970902919769287,
                2.297090768814087,
                2.297090768814087
            ],
            "translation" : [
                -2.461515188217163,
                -0.010405898094177246,
                0.5526746511459351
            ]
        },
        {
            "mesh" : 1,
            "name" : "Sphere",
            "scale" : [
                0.40209364891052246,
                0.40209364891052246,
                0.40209364891052246
            ],
            "translation" : [
                -0.9404232501983643,
                0.017846709117293358,
                -0.8308033347129822
            ]
        },
        {
            "mesh" : 2,
            "name" : "Sphere.001",
            "rotation" : [
                0,
                -0.8514494299888611,
                0,
                0.5244367122650146
            ],
            "scale" : [
                0.40209364891052246,
                0.40209364891052246,
                0.40209364891052246
            ],
            "translation" : [
                0.7876306772232056,
                0.017846709117293358,
                0.1415582299232483
            ]
        },
        {
            "mesh" : 3,
            "name" : "Sphere.002",
            "rotation" : [
                0,
                -0.8461976647377014,
                0,
                -0.5328691005706787
            ],
            "scale" : [
                0.40209364891052246,
                0.40209364891052246,
                0.40209364891052246
            ],
            "translation" : [
                -0.9419563412666321,
                0.017846709117293358,
                1.1509754657745361
            ]
        }
    ],
    "materials" : [
        {
            "doubleSided" : true,
            "name" : "Material.003",
            "pbrMetallicRoughness" : {
                "baseColorFactor" : [
                    0,
                    0,
                    0,
                    1
                ],
                "metallicFactor" : 0,
                "roughnessFactor" : 0.5
            }
        },
        {
            "doubleSided" : true,
            "name" : "Material.002",
            "pbrMetallicRoughness" : {
                "baseColorFactor" : [
                    0,
                    0.8000000715255737,
                    0.5221214890480042,
                    1
                ],
                "metallicFactor" : 0,
                "roughnessFactor" : 0.5
            }
        }
    ],
    "meshes" : [
        {
            "name" : "Tripod",
            "primitives" : [
                {
                    "attributes" : {
                        "POSITION" : 0,
                        "NORMAL" : 1,
                        "TEXCOORD_0" : 2
                    },
                    "indices" : 3,
                    "material" : 0
                }
            ]
        },
        {
            "name" : "Sphere",
            "primitives" : [
                {
                    "attributes" : {
                        "POSITION" : 4,
                        "NORMAL" : 5,
                        "TEXCOORD_0" : 6
                    },
                    "indices" : 7,
                    "material" : 1
                }
            ]
        },
        {
            "name" : "Sphere.001",
            "primitives" : [
                {
                    "attributes" : {
                        "POSITION" : 8,
                        "NORMAL" : 9,
                        "TEXCOORD_0" : 10
                    },
                    "indices" : 7,
                    "material" : 1
                }
            ]
        },
        {
            "name" : "Sphere.002",
            "primitives" : [
                {
                    "attributes" : {
                        "POSITION" : 11,
                        "NORMAL" : 12,
                        "TEXCOORD_0" : 13
                    },
                    "indices" : 7,
                    "material" : 1
                }
            ]
        }
    ],
    "accessors" : [
        {
            "bufferView" : 0,
            "componentType" : 5126,
            "count" : 2693,
            "max" : [
                2.02060604095459,
                0.07000000029802322,
                0.16187186539173126
            ],
            "min" : [
                0.010653987526893616,
                -0.07000000029802322,
                -0.5210143327713013
            ],
            "type" : "VEC3"
        },
        {
            "bufferView" : 1,
            "componentType" : 5126,
            "count" : 2693,
            "type" : "VEC3"
        },
        {
            "bufferView" : 2,
            "componentType" : 5126,
            "count" : 2693,
            "type" : "VEC2"
        },
        {
            "bufferView" : 3,
            "componentType" : 5123,
            "count" : 4992,
            "type" : "SCALAR"
        },
        {
            "bufferView" : 4,
            "componentType" : 5126,
            "count" : 1756,
            "max" : [
                1.000000238418579,
                1,
                0.9999128580093384
            ],
            "min" : [
                -0.9999998211860657,
                -1,
                -1
            ],
            "type" : "VEC3"
        },
        {
            "bufferView" : 5,
            "componentType" : 5126,
            "count" : 1756,
            "type" : "VEC3"
        },
        {
            "bufferView" : 6,
            "componentType" : 5126,
            "count" : 1756,
            "type" : "VEC2"
        },
        {
            "bufferView" : 7,
            "componentType" : 5123,
            "count" : 2604,
            "type" : "SCALAR"
        },
        {
            "bufferView" : 8,
            "componentType" : 5126,
            "count" : 1756,
            "max" : [
                1.000000238418579,
                1,
                0.9999128580093384
            ],
            "min" : [
                -0.9999998211860657,
                -1,
                -1
            ],
            "type" : "VEC3"
        },
        {
            "bufferView" : 9,
            "componentType" : 5126,
            "count" : 1756,
            "type" : "VEC3"
        },
        {
            "bufferView" : 10,
            "componentType" : 5126,
            "count" : 1756,
            "type" : "VEC2"
        },
        {
            "bufferView" : 11,
            "componentType" : 5126,
            "count" : 1756,
            "max" : [
                1.000000238418579,
                1,
                0.9999128580093384
            ],
            "min" : [
                -0.9999998211860657,
                -1,
                -1
            ],
            "type" : "VEC3"
        },
        {
            "bufferView" : 12,
            "componentType" : 5126,
            "count" : 1756,
            "type" : "VEC3"
        },
        {
            "bufferView" : 13,
            "componentType" : 5126,
            "count" : 1756,
            "type" : "VEC2"
        }
    ],
    "bufferViews" : [
        {
            "buffer" : 0,
            "byteLength" : 32316,
            "byteOffset" : 0
        },
        {
            "buffer" : 0,
            "byteLength" : 32316,
            "byteOffset" : 32316
        },
        {
            "buffer" : 0,
            "byteLength" : 21544,
            "byteOffset" : 64632
        },
        {
            "buffer" : 0,
            "byteLength" : 9984,
            "byteOffset" : 86176
        },
        {
            "buffer" : 0,
            "byteLength" : 21072,
            "byteOffset" : 96160
        },
        {
            "buffer" : 0,
            "byteLength" : 21072,
            "byteOffset" : 117232
        },
        {
            "buffer" : 0,
            "byteLength" : 14048,
            "byteOffset" : 138304
        },
        {
            "buffer" : 0,
            "byteLength" : 5208,
            "byteOffset" : 152352
        },
        {
            "buffer" : 0,
            "byteLength" : 21072,
            "byteOffset" : 157560
        },
        {
            "buffer" : 0,
            "byteLength" : 21072,
            "byteOffset" : 178632
        },
        {
            "buffer" : 0,
            "byteLength" : 14048,
            "byteOffset" : 199704
        },
        {
            "buffer" : 0,
            "byteLength" : 21072,
            "byteOffset" : 213752
        },
        {
            "buffer" : 0,
            "byteLength" : 21072,
            "byteOffset" : 234824
        },
        {
            "buffer" : 0,
            "byteLength" : 14048,
            "byteOffset" : 255896
        }
    ],
    "buffers" : [
        {
            "byteLength" : 269944,
            "uri" : "data:application/octet-stream;base64,"
        }
    ]
}
